<svg width="151" height="33" viewBox="0 0 151 33" fill="none" xmlns="http://www.w3.org/2000/svg">
<g id="audiophile 2">
<g id="audiophile" filter="url(#filter0_dd)">
<path fill-rule="evenodd" clip-rule="evenodd" d="M61.9755 4.10884V0H57.2131V4.10884H61.9755ZM45.8721 20.3997C47.5076 20.3997 48.9648 19.8429 50.1074 18.8803L50.5635 19.9241H54.1425V0.792094L49.3611 0.792093V6.38308C48.3548 5.75732 47.1686 5.40721 45.8721 5.40721C41.5634 5.40721 38.4943 8.52769 38.4943 12.896C38.4943 17.2644 41.5634 20.3997 45.8721 20.3997ZM11.3626 20.3849C12.9935 20.3849 14.4497 19.8476 15.5995 18.9152L16.0137 19.9093H19.7527V5.85311L16.1479 5.85285L15.6531 6.93986C14.4936 5.98222 13.0164 5.42934 11.3626 5.42934C7.06909 5.42934 4 8.52769 4 12.8809C4 17.2493 7.06909 20.3849 11.3626 20.3849ZM12.0093 16.098C10.1977 16.098 8.86614 14.7278 8.86614 12.8921C8.86614 11.0677 10.1868 9.69748 12.0093 9.69748C13.8209 9.69748 15.1525 11.0677 15.1525 12.8921C15.1525 14.7278 13.8209 16.098 12.0093 16.098ZM36.4542 13.8899C36.4542 17.823 33.6916 20.3849 29.544 20.3849C25.396 20.3849 22.6184 17.823 22.6184 13.8899V5.86794H27.4549V13.6793C27.4549 15.163 28.2516 16.0355 29.544 16.0355C30.836 16.0355 31.6177 15.1482 31.6177 13.6793V5.86794H36.4542V13.8899ZM43.3758 12.8963C43.3758 14.7317 44.7074 16.1128 46.519 16.1128C48.3306 16.1128 49.6622 14.7317 49.6622 12.8963C49.6622 11.0607 48.3306 9.67952 46.519 9.67952C44.7074 9.67952 43.3758 11.0607 43.3758 12.8963ZM62.0127 5.86768V19.9239H57.1762V5.86768H62.0127ZM72.1095 20.3849C76.6727 20.3849 79.9821 17.2384 79.9821 12.896C79.9821 8.53888 76.6727 5.40747 72.1095 5.40747C67.5315 5.40747 64.237 8.53888 64.237 12.896C64.237 17.2384 67.5315 20.3849 72.1095 20.3849ZM69.0812 12.8963C69.0812 14.7546 70.346 16.0355 72.1095 16.0358C73.873 16.0358 75.1378 14.7548 75.1378 12.8966C75.1378 11.0492 73.873 9.75709 72.1095 9.75709C70.346 9.75709 69.0812 11.038 69.0812 12.8963ZM86.9978 25V19.4663C87.9888 20.0655 89.1511 20.3997 90.4208 20.3997C94.7144 20.3997 97.7835 17.2753 97.7835 12.896C97.7835 8.51676 94.7144 5.40721 90.4208 5.40721C88.7523 5.40721 87.2662 5.98508 86.1114 6.98463L85.5056 5.86794H82.2165V25H86.9978ZM86.6307 12.8958C86.6307 14.7424 87.9623 16.1126 89.7739 16.1126C91.5743 16.1126 92.9171 14.7424 92.9171 12.8958C92.9171 11.0492 91.5855 9.679 89.7739 9.679C87.9623 9.679 86.6307 11.0492 86.6307 12.8958ZM104.839 19.9241V12.4181C104.839 10.6143 105.751 9.57462 107.215 9.57462C108.477 9.57462 109.046 10.4011 109.046 12.0222V19.9241H113.882V11.4597C113.882 7.81629 111.811 5.45225 108.587 5.45225C107.188 5.45225 105.873 5.95931 104.839 6.79279V0.792093H100.002V19.9241H104.839ZM121.574 0V4.10884H116.811V0H121.574ZM121.611 5.86768H116.774V19.9239H121.611V5.86768ZM129.489 0.792093V19.9241H124.653V0.792093H129.489ZM139.34 20.3851C142.863 20.3851 145.704 18.3808 146.692 15.1729H141.879C141.414 15.9957 140.47 16.4911 139.34 16.4911C137.813 16.4911 136.79 15.6573 136.474 14.045H146.9C146.963 13.6103 147 13.1868 147 12.7633C147 8.63988 143.866 5.40747 139.34 5.40747C134.933 5.40747 131.714 8.57611 131.714 12.8854C131.714 17.1795 134.959 20.3851 139.34 20.3851ZM136.559 11.3639H142.236C141.811 9.95908 140.8 9.20109 139.34 9.20109C137.931 9.20109 136.951 9.96767 136.559 11.3639Z" fill="white"/>
</g>
</g>
<defs>
<filter id="filter0_dd" x="0" y="0" width="151" height="33" filterUnits="userSpaceOnUse" color-interpolation-filters="sRGB">
<feFlood flood-opacity="0" result="BackgroundImageFix"/>
<feColorMatrix in="SourceAlpha" type="matrix" values="0 0 0 0 0 0 0 0 0 0 0 0 0 0 0 0 0 0 127 0" result="hardAlpha"/>
<feOffset dy="4"/>
<feGaussianBlur stdDeviation="2"/>
<feComposite in2="hardAlpha" operator="out"/>
<feColorMatrix type="matrix" values="0 0 0 0 0 0 0 0 0 0 0 0 0 0 0 0 0 0 0.25 0"/>
<feBlend mode="normal" in2="BackgroundImageFix" result="effect1_dropShadow"/>
<feColorMatrix in="SourceAlpha" type="matrix" values="0 0 0 0 0 0 0 0 0 0 0 0 0 0 0 0 0 0 127 0" result="hardAlpha"/>
<feOffset dy="4"/>
<feGaussianBlur stdDeviation="2"/>
<feComposite in2="hardAlpha" operator="out"/>
<feColorMatrix type="matrix" values="0 0 0 0 0 0 0 0 0 0 0 0 0 0 0 0 0 0 0.25 0"/>
<feBlend mode="normal" in2="effect1_dropShadow" result="effect2_dropShadow"/>
<feBlend mode="normal" in="SourceGraphic" in2="effect2_dropShadow" result="shape"/>
</filter>
</defs>
</svg>
